/* XPM */
static char *out_18[] = {
/* columns rows colors chars-per-pixel */
"80 112 6 1 ",
"  c None",
". c #282828",
"X c #729F44",
"o c #9FC578",
"O c #506F30",
"+ c white",
/* pixels */
"                                                                                ",
"                                                                                ",
"                                                                                ",
"                                                                                ",
"                                                                                ",
"                                                                                ",
"                                                                                ",
"                                                                                ",
"                                                                                ",
"                                                                                ",
"                                                                                ",
"                                                                                ",
"                                                                                ",
"                                                                                ",
"                                                                                ",
"                                                                                ",
"                                                                                ",
"                                                                                ",
"                                                                                ",
"                                                                                ",
"                                                                                ",
"                                                                                ",
"                                                                                ",
"                                                                                ",
"                                                                                ",
"                                                                                ",
"                                                                                ",
"                                                                                ",
"                                                                                ",
"                                                                                ",
"                                                                                ",
"                                                                                ",
"                                                                                ",
"                                                                                ",
"                                                                                ",
"                                                                                ",
"                                                                                ",
"                                                                                ",
"                                                                                ",
"                                                                                ",
"                                                                                ",
"                                                                                ",
"                                                                                ",
"                                                                                ",
"                        ........                ........                        ",
"                        ........                ........                        ",
"                        ........                ........                        ",
"                        ........                ........                        ",
"                    ....XXXXoooo................ooooXXXX....                    ",
"                    ....XXXXoooo................ooooXXXX....                    ",
"                    ....XXXXoooo................ooooXXXX....                    ",
"                    ....XXXXoooo................ooooXXXX....                    ",
"                ....XXXXooooooooooooooooooooooooooooooooXXXX....                ",
"                ....XXXXooooooooooooooooooooooooooooooooXXXX....                ",
"                ....XXXXooooooooooooooooooooooooooooooooXXXX....                ",
"                ....XXXXooooooooooooooooooooooooooooooooXXXX....                ",
"                ....XXXXooooooooooooooooooooooooooooooooXXXX....                ",
"                ....XXXXooooooooooooooooooooooooooooooooXXXX....                ",
"                ....XXXXooooooooooooooooooooooooooooooooXXXX....                ",
"                ....XXXXooooooooooooooooooooooooooooooooXXXX....                ",
"                    ....oooooooooooooooooooooooooooooooo....                    ",
"                    ....oooooooooooooooooooooooooooooooo....                    ",
"                    ....oooooooooooooooooooooooooooooooo....                    ",
"                    ....oooooooooooooooooooooooooooooooo....                    ",
"                    ....oooooooooooooooooooooooooooooooo....                    ",
"                    ....oooooooooooooooooooooooooooooooo....                    ",
"                    ....oooooooooooooooooooooooooooooooo....                    ",
"                    ....oooooooooooooooooooooooooooooooo....                    ",
"                    ....XXXXooooooooooooooooooooooooXXXX....                    ",
"                    ....XXXXooooooooooooooooooooooooXXXX....                    ",
"                    ....XXXXooooooooooooooooooooooooXXXX....                    ",
"                    ....XXXXooooooooooooooooooooooooXXXX....                    ",
"                    ....OOOOXXXXooooooooooooooooXXXXOOOO....                    ",
"                    ....OOOOXXXXooooooooooooooooXXXXOOOO....                    ",
"                    ....OOOOXXXXooooooooooooooooXXXXOOOO....                    ",
"                    ....OOOOXXXXooooooooooooooooXXXXOOOO....                    ",
"                        ....OOOOXXXXooooooooXXXXOOOO....                        ",
"                        ....OOOOXXXXooooooooXXXXOOOO....                        ",
"                        ....OOOOXXXXooooooooXXXXOOOO....                        ",
"                        ....OOOOXXXXooooooooXXXXOOOO....                        ",
"                    ....XXXXXXXXXXXXXXXXXXXXXXXXooooXXXX....                    ",
"                    ....XXXXXXXXXXXXXXXXXXXXXXXXooooXXXX....                    ",
"                    ....XXXXXXXXXXXXXXXXXXXXXXXXooooXXXX....                    ",
"                    ....XXXXXXXXXXXXXXXXXXXXXXXXooooXXXX....                    ",
"                ....XXXXXXXXOOOOooooooooooooXXXXXXXXoooo....                    ",
"                ....XXXXXXXXOOOOooooooooooooXXXXXXXXoooo....                    ",
"                ....XXXXXXXXOOOOooooooooooooXXXXXXXXoooo....                    ",
"                ....XXXXXXXXOOOOooooooooooooXXXXXXXXoooo....                    ",
"                ....XXXXOOOOOOOOooooooooooooooooOOOOoooooooo....                ",
"                ....XXXXOOOOOOOOooooooooooooooooOOOOoooooooo....                ",
"                ....XXXXOOOOOOOOooooooooooooooooOOOOoooooooo....                ",
"                ....XXXXOOOOOOOOooooooooooooooooOOOOoooooooo....                ",
"                    ........XXXXooooooooooooooooOOOOXXXXoooo....                ",
"                    ........XXXXooooooooooooooooOOOOXXXXoooo....                ",
"                    ........XXXXooooooooooooooooOOOOXXXXoooo....                ",
"                    ........XXXXooooooooooooooooOOOOXXXXoooo....                ",
"                        ....XXXXooooooooooooooooOOOO........                    ",
"                        ....XXXXooooooooooooooooOOOO........                    ",
"                        ....XXXXooooooooooooooooOOOO........                    ",
"                        ....XXXXooooooooooooooooOOOO........                    ",
"                        ....OOOOooooooooOOOOXXXX....                            ",
"                        ....OOOOooooooooOOOOXXXX....                            ",
"                        ....OOOOooooooooOOOOXXXX....                            ",
"                        ....OOOOooooooooOOOOXXXX....                            ",
"                            ....ooooXXXX........                                ",
"                            ....ooooXXXX........                                ",
"                            ....ooooXXXX........                                ",
"                            ....ooooXXXX........                                ",
"                                ........                                        ",
"                                ........                                        ",
"                                ........                                        ",
"                                ........                                        "
};
