/* XPM */
static char *out_23[] = {
/* columns rows colors chars-per-pixel */
"80 112 6 1 ",
"  c None",
". c #282828",
"X c #729F44",
"o c #9FC578",
"O c #506F30",
"+ c white",
/* pixels */
"                                                                                ",
"                                                                                ",
"                                                                                ",
"                                                                                ",
"                                                                                ",
"                                                                                ",
"                                                                                ",
"                                                                                ",
"                                                                                ",
"                                                                                ",
"                                                                                ",
"                                                                                ",
"                                                                                ",
"                                                                                ",
"                                                                                ",
"                                                                                ",
"                                                                                ",
"                                                                                ",
"                                                                                ",
"                                                                                ",
"                                                                                ",
"                                                                                ",
"                                                                                ",
"                                                                                ",
"                                                                                ",
"                                                                                ",
"                                                                                ",
"                                                                                ",
"                                                                                ",
"                                                                                ",
"                                                                                ",
"                                                                                ",
"                                                                                ",
"                                                                                ",
"                                                                                ",
"                                                                                ",
"                                                                                ",
"                                                                                ",
"                                                                                ",
"                                                                                ",
"                        ........                                                ",
"                        ........                                                ",
"                        ........                                                ",
"                        ........                                                ",
"                    ....XXXXoooo....            ........                        ",
"                    ....XXXXoooo....            ........                        ",
"                    ....XXXXoooo....            ........                        ",
"                    ....XXXXoooo....            ........                        ",
"                ....XXXXoooooooooooo............ooooXXXX....                    ",
"                ....XXXXoooooooooooo............ooooXXXX....                    ",
"                ....XXXXoooooooooooo............ooooXXXX....                    ",
"                ....XXXXoooooooooooo............ooooXXXX....                    ",
"                ....XXXXooooooooooooooooooooooooooooooooXXXX....                ",
"                ....XXXXooooooooooooooooooooooooooooooooXXXX....                ",
"                ....XXXXooooooooooooooooooooooooooooooooXXXX....                ",
"                ....XXXXooooooooooooooooooooooooooooooooXXXX....                ",
"                    ....ooooooooooooooooooooooooooooooooXXXX....                ",
"                    ....ooooooooooooooooooooooooooooooooXXXX....                ",
"                    ....ooooooooooooooooooooooooooooooooXXXX....                ",
"                    ....ooooooooooooooooooooooooooooooooXXXX....                ",
"                    ....XXXXoooooooooooooooooooooooooooo....                    ",
"                    ....XXXXoooooooooooooooooooooooooooo....                    ",
"                    ....XXXXoooooooooooooooooooooooooooo....                    ",
"                    ....XXXXoooooooooooooooooooooooooooo....                    ",
"                    ....XXXXoooooooooooooooooooooooooooo....                    ",
"                    ....XXXXoooooooooooooooooooooooooooo....                    ",
"                    ....XXXXoooooooooooooooooooooooooooo....                    ",
"                    ....XXXXoooooooooooooooooooooooooooo....                    ",
"                    ....XXXXooooooooooooooooooooooooXXXX....                    ",
"                    ....XXXXooooooooooooooooooooooooXXXX....                    ",
"                    ....XXXXooooooooooooooooooooooooXXXX....                    ",
"                    ....XXXXooooooooooooooooooooooooXXXX....                    ",
"                    ....OOOOXXXXooooooooooooooooXXXX....                        ",
"                    ....OOOOXXXXooooooooooooooooXXXX....                        ",
"                    ....OOOOXXXXooooooooooooooooXXXX....                        ",
"                    ....OOOOXXXXooooooooooooooooXXXX....                        ",
"                    ........OOOOXXXXooooooooXXXXOOOO....                        ",
"                    ........OOOOXXXXooooooooXXXXOOOO....                        ",
"                    ........OOOOXXXXooooooooXXXXOOOO....                        ",
"                    ........OOOOXXXXooooooooXXXXOOOO....                        ",
"                ....XXXXXXXXOOOOXXXXXXXXXXXXXXXXooooXXXX....                    ",
"                ....XXXXXXXXOOOOXXXXXXXXXXXXXXXXooooXXXX....                    ",
"                ....XXXXXXXXOOOOXXXXXXXXXXXXXXXXooooXXXX....                    ",
"                ....XXXXXXXXOOOOXXXXXXXXXXXXXXXXooooXXXX....                    ",
"            ....XXXXooooOOOOOOOOooooooooooooXXXXXXXXoooooooo....                ",
"            ....XXXXooooOOOOOOOOooooooooooooXXXXXXXXoooooooo....                ",
"            ....XXXXooooOOOOOOOOooooooooooooXXXXXXXXoooooooo....                ",
"            ....XXXXooooOOOOOOOOooooooooooooXXXXXXXXoooooooo....                ",
"            ....XXXXOOOO....OOOOooooooooooooooooOOOOXXXXoooooooo....            ",
"            ....XXXXOOOO....OOOOooooooooooooooooOOOOXXXXoooooooo....            ",
"            ....XXXXOOOO....OOOOooooooooooooooooOOOOXXXXoooooooo....            ",
"            ....XXXXOOOO....OOOOooooooooooooooooOOOOXXXXoooooooo....            ",
"                ............OOOOooooooooooooooooOOOOOOOOXXXXoooo....            ",
"                ............OOOOooooooooooooooooOOOOOOOOXXXXoooo....            ",
"                ............OOOOooooooooooooooooOOOOOOOOXXXXoooo....            ",
"                ............OOOOooooooooooooooooOOOOOOOOXXXXoooo....            ",
"                        ....OOOOooooooooooooXXXXOOOO............                ",
"                        ....OOOOooooooooooooXXXXOOOO............                ",
"                        ....OOOOooooooooooooXXXXOOOO............                ",
"                        ....OOOOooooooooooooXXXXOOOO............                ",
"                            ....XXXXooooooooOOOO....                            ",
"                            ....XXXXooooooooOOOO....                            ",
"                            ....XXXXooooooooOOOO....                            ",
"                            ....XXXXooooooooOOOO....                            ",
"                            ....XXXXooooXXXX....                                ",
"                            ....XXXXooooXXXX....                                ",
"                            ....XXXXooooXXXX....                                ",
"                            ....XXXXooooXXXX....                                ",
"                                ............                                    ",
"                                ............                                    ",
"                                ............                                    ",
"                                ............                                    "
};
