/* XPM */
static char *out_21[] = {
/* columns rows colors chars-per-pixel */
"80 112 6 1 ",
"  c None",
". c #282828",
"X c #729F44",
"o c #9FC578",
"O c #506F30",
"+ c white",
/* pixels */
"                                                                                ",
"                                                                                ",
"                                                                                ",
"                                                                                ",
"                                                                                ",
"                                                                                ",
"                                                                                ",
"                                                                                ",
"                                                                                ",
"                                                                                ",
"                                                                                ",
"                                                                                ",
"                                                                                ",
"                                                                                ",
"                                                                                ",
"                                                                                ",
"                                                                                ",
"                                                                                ",
"                                                                                ",
"                                                                                ",
"                                                                                ",
"                                                                                ",
"                                                                                ",
"                                                                                ",
"                                                                                ",
"                                                                                ",
"                                                                                ",
"                                                                                ",
"                                                                                ",
"                                                                                ",
"                                                                                ",
"                                                                                ",
"                                                                                ",
"                                                                                ",
"                                                                                ",
"                                                                                ",
"                                                                                ",
"                                                                                ",
"                                                                                ",
"                                                                                ",
"                        ........                                                ",
"                        ........                                                ",
"                        ........                                                ",
"                        ........                                                ",
"                    ....XXXXoooo....            ........                        ",
"                    ....XXXXoooo....            ........                        ",
"                    ....XXXXoooo....            ........                        ",
"                    ....XXXXoooo....            ........                        ",
"                ....XXXXoooooooooooo............ooooXXXX....                    ",
"                ....XXXXoooooooooooo............ooooXXXX....                    ",
"                ....XXXXoooooooooooo............ooooXXXX....                    ",
"                ....XXXXoooooooooooo............ooooXXXX....                    ",
"                ....XXXXooooooooooooooooooooooooooooooooXXXX....                ",
"                ....XXXXooooooooooooooooooooooooooooooooXXXX....                ",
"                ....XXXXooooooooooooooooooooooooooooooooXXXX....                ",
"                ....XXXXooooooooooooooooooooooooooooooooXXXX....                ",
"                    ....ooooooooooooooooooooooooooooooooXXXX....                ",
"                    ....ooooooooooooooooooooooooooooooooXXXX....                ",
"                    ....ooooooooooooooooooooooooooooooooXXXX....                ",
"                    ....ooooooooooooooooooooooooooooooooXXXX....                ",
"                    ....XXXXoooooooooooooooooooooooooooo....                    ",
"                    ....XXXXoooooooooooooooooooooooooooo....                    ",
"                    ....XXXXoooooooooooooooooooooooooooo....                    ",
"                    ....XXXXoooooooooooooooooooooooooooo....                    ",
"                    ....XXXXoooooooooooooooooooooooooooo....                    ",
"                    ....XXXXoooooooooooooooooooooooooooo....                    ",
"                    ....XXXXoooooooooooooooooooooooooooo....                    ",
"                    ....XXXXoooooooooooooooooooooooooooo....                    ",
"                    ....XXXXooooooooooooooooooooooooXXXX....                    ",
"                    ....XXXXooooooooooooooooooooooooXXXX....                    ",
"                    ....XXXXooooooooooooooooooooooooXXXX....                    ",
"                    ....XXXXooooooooooooooooooooooooXXXX....                    ",
"                    ....OOOOXXXXooooooooooooooooXXXX....                        ",
"                    ....OOOOXXXXooooooooooooooooXXXX....                        ",
"                    ....OOOOXXXXooooooooooooooooXXXX....                        ",
"                    ....OOOOXXXXooooooooooooooooXXXX....                        ",
"                        ....OOOOXXXXooooooooXXXXOOOO....                        ",
"                        ....OOOOXXXXooooooooXXXXOOOO....                        ",
"                        ....OOOOXXXXooooooooXXXXOOOO....                        ",
"                        ....OOOOXXXXooooooooXXXXOOOO....                        ",
"                        ....OOOOXXXXXXXXXXXXXXXXoooo....                        ",
"                        ....OOOOXXXXXXXXXXXXXXXXoooo....                        ",
"                        ....OOOOXXXXXXXXXXXXXXXXoooo....                        ",
"                        ....OOOOXXXXXXXXXXXXXXXXoooo....                        ",
"                        ....OOOOooooooooooooXXXXoooo....                        ",
"                        ....OOOOooooooooooooXXXXoooo....                        ",
"                        ....OOOOooooooooooooXXXXoooo....                        ",
"                        ....OOOOooooooooooooXXXXoooo....                        ",
"                        ....OOOOooooooooooooOOOOoooooooo....                    ",
"                        ....OOOOooooooooooooOOOOoooooooo....                    ",
"                        ....OOOOooooooooooooOOOOoooooooo....                    ",
"                        ....OOOOooooooooooooOOOOoooooooo....                    ",
"                        ....ooooooooooooooooOOOOXXXXoooo....                    ",
"                        ....ooooooooooooooooOOOOXXXXoooo....                    ",
"                        ....ooooooooooooooooOOOOXXXXoooo....                    ",
"                        ....ooooooooooooooooOOOOXXXXoooo....                    ",
"                    ....XXXXooooooooOOOOXXXXXXXXOOOOOOOO....                    ",
"                    ....XXXXooooooooOOOOXXXXXXXXOOOOOOOO....                    ",
"                    ....XXXXooooooooOOOOXXXXXXXXOOOOOOOO....                    ",
"                    ....XXXXooooooooOOOOXXXXXXXXOOOOOOOO....                    ",
"                    ....ooooXXXXOOOO........OOOOXXXXOOOO....                    ",
"                    ....ooooXXXXOOOO........OOOOXXXXOOOO....                    ",
"                    ....ooooXXXXOOOO........OOOOXXXXOOOO....                    ",
"                    ....ooooXXXXOOOO........OOOOXXXXOOOO....                    ",
"                        ............        ............                        ",
"                        ............        ............                        ",
"                        ............        ............                        ",
"                        ............        ............                        ",
"                                                                                ",
"                                                                                ",
"                                                                                ",
"                                                                                "
};
