/* XPM */
static char *out_22[] = {
/* columns rows colors chars-per-pixel */
"80 112 6 1 ",
"  c None",
". c #282828",
"X c #729F44",
"o c #9FC578",
"O c #506F30",
"+ c white",
/* pixels */
"                                                                                ",
"                                                                                ",
"                                                                                ",
"                                                                                ",
"                                                                                ",
"                                                                                ",
"                                                                                ",
"                                                                                ",
"                                                                                ",
"                                                                                ",
"                                                                                ",
"                                                                                ",
"                                                                                ",
"                                                                                ",
"                                                                                ",
"                                                                                ",
"                                                                                ",
"                                                                                ",
"                                                                                ",
"                                                                                ",
"                                                                                ",
"                                                                                ",
"                                                                                ",
"                                                                                ",
"                                                                                ",
"                                                                                ",
"                                                                                ",
"                                                                                ",
"                                                                                ",
"                                                                                ",
"                                                                                ",
"                                                                                ",
"                                                                                ",
"                                                                                ",
"                                                                                ",
"                                                                                ",
"                        ........                                                ",
"                        ........                                                ",
"                        ........                                                ",
"                        ........                                                ",
"                    ....XXXXoooo....            ........                        ",
"                    ....XXXXoooo....            ........                        ",
"                    ....XXXXoooo....            ........                        ",
"                    ....XXXXoooo....            ........                        ",
"                ....XXXXoooooooooooo............ooooXXXX....                    ",
"                ....XXXXoooooooooooo............ooooXXXX....                    ",
"                ....XXXXoooooooooooo............ooooXXXX....                    ",
"                ....XXXXoooooooooooo............ooooXXXX....                    ",
"                ....XXXXooooooooooooooooooooooooooooooooXXXX....                ",
"                ....XXXXooooooooooooooooooooooooooooooooXXXX....                ",
"                ....XXXXooooooooooooooooooooooooooooooooXXXX....                ",
"                ....XXXXooooooooooooooooooooooooooooooooXXXX....                ",
"                    ....ooooooooooooooooooooooooooooooooXXXX....                ",
"                    ....ooooooooooooooooooooooooooooooooXXXX....                ",
"                    ....ooooooooooooooooooooooooooooooooXXXX....                ",
"                    ....ooooooooooooooooooooooooooooooooXXXX....                ",
"                    ....XXXXoooooooooooooooooooooooooooo....                    ",
"                    ....XXXXoooooooooooooooooooooooooooo....                    ",
"                    ....XXXXoooooooooooooooooooooooooooo....                    ",
"                    ....XXXXoooooooooooooooooooooooooooo....                    ",
"                    ....XXXXoooooooooooooooooooooooooooo....                    ",
"                    ....XXXXoooooooooooooooooooooooooooo....                    ",
"                    ....XXXXoooooooooooooooooooooooooooo....                    ",
"                    ....XXXXoooooooooooooooooooooooooooo....                    ",
"                    ....XXXXooooooooooooooooooooooooXXXX....                    ",
"                    ....XXXXooooooooooooooooooooooooXXXX....                    ",
"                    ....XXXXooooooooooooooooooooooooXXXX....                    ",
"                    ....XXXXooooooooooooooooooooooooXXXX....                    ",
"                    ....OOOOooooooooooooooooooooXXXX....                        ",
"                    ....OOOOooooooooooooooooooooXXXX....                        ",
"                    ....OOOOooooooooooooooooooooXXXX....                        ",
"                    ....OOOOooooooooooooooooooooXXXX....                        ",
"                        ....OOOOXXXXooooooooXXXXOOOO....                        ",
"                        ....OOOOXXXXooooooooXXXXOOOO....                        ",
"                        ....OOOOXXXXooooooooXXXXOOOO....                        ",
"                        ....OOOOXXXXooooooooXXXXOOOO....                        ",
"                    ....XXXXOOOOXXXXXXXXXXXXXXXXoooo....                        ",
"                    ....XXXXOOOOXXXXXXXXXXXXXXXXoooo....                        ",
"                    ....XXXXOOOOXXXXXXXXXXXXXXXXoooo....                        ",
"                    ....XXXXOOOOXXXXXXXXXXXXXXXXoooo....                        ",
"                ....ooooXXXXOOOOooooooooooooXXXXoooooooo....                    ",
"                ....ooooXXXXOOOOooooooooooooXXXXoooooooo....                    ",
"                ....ooooXXXXOOOOooooooooooooXXXXoooooooo....                    ",
"                ....ooooXXXXOOOOooooooooooooXXXXoooooooo....                    ",
"                ....XXXXOOOOOOOOooooooooooooooooOOOOoooooooo....                ",
"                ....XXXXOOOOOOOOooooooooooooooooOOOOoooooooo....                ",
"                ....XXXXOOOOOOOOooooooooooooooooOOOOoooooooo....                ",
"                ....XXXXOOOOOOOOooooooooooooooooOOOOoooooooo....                ",
"                    ........ooooooooooooooooooooOOOOXXXXoooo....                ",
"                    ........ooooooooooooooooooooOOOOXXXXoooo....                ",
"                    ........ooooooooooooooooooooOOOOXXXXoooo....                ",
"                    ........ooooooooooooooooooooOOOOXXXXoooo....                ",
"                        ....ooooooooooooooooooooXXXX........                    ",
"                        ....ooooooooooooooooooooXXXX........                    ",
"                        ....ooooooooooooooooooooXXXX........                    ",
"                        ....ooooooooooooooooooooXXXX........                    ",
"                        ....ooooXXXXOOOOXXXXoooooooo....                        ",
"                        ....ooooXXXXOOOOXXXXoooooooo....                        ",
"                        ....ooooXXXXOOOOXXXXoooooooo....                        ",
"                        ....ooooXXXXOOOOXXXXoooooooo....                        ",
"                            ............XXXXoooooooo....                        ",
"                            ............XXXXoooooooo....                        ",
"                            ............XXXXoooooooo....                        ",
"                            ............XXXXoooooooo....                        ",
"                                        ............                            ",
"                                        ............                            ",
"                                        ............                            ",
"                                        ............                            ",
"                                                                                ",
"                                                                                ",
"                                                                                ",
"                                                                                "
};
