/* XPM */
static char *out_10[] = {
/* columns rows colors chars-per-pixel */
"80 112 9 1 ",
"  c None",
". c #282828",
"X c white",
"o c #3C3C3C",
"O c #575257",
"+ c #9FC578",
"@ c #729F44",
"# c #506F30",
"$ c white",
/* pixels */
"                                                                                ",
"                                                                                ",
"                                                                                ",
"                                                                                ",
"                                                                                ",
"                                                                                ",
"                                                                                ",
"                                                                                ",
"                                                                                ",
"                                                                                ",
"                                                                                ",
"                                                                                ",
"                                                                                ",
"                                                                                ",
"                                                                                ",
"                                                                                ",
"                                                                                ",
"                                                                                ",
"                                                                                ",
"                                                                                ",
"                                                                                ",
"                                                                                ",
"                                                                                ",
"                                                                                ",
"                                                                                ",
"                                                                                ",
"                                                                                ",
"                                                                                ",
"                                                                                ",
"                                                                                ",
"                                                                                ",
"                                                                                ",
"                                                                                ",
"                                                                                ",
"                                                                                ",
"                                                                                ",
"                                                ........                        ",
"                                                ........                        ",
"                                                ........                        ",
"                                                ........                        ",
"                        ........            ....XXXXXXXX....                    ",
"                        ........            ....XXXXXXXX....                    ",
"                        ........            ....XXXXXXXX....                    ",
"                        ........            ....XXXXXXXX....                    ",
"                    ....XXXXXXXX............XXXXooooOOOOXXXX....                ",
"                    ....XXXXXXXX............XXXXooooOOOOXXXX....                ",
"                    ....XXXXXXXX............XXXXooooOOOOXXXX....                ",
"                    ....XXXXXXXX............XXXXooooOOOOXXXX....                ",
"                ....XXXXooooOOOOXXXX++++++++XXXXooooooooXXXX....                ",
"                ....XXXXooooOOOOXXXX++++++++XXXXooooooooXXXX....                ",
"                ....XXXXooooOOOOXXXX++++++++XXXXooooooooXXXX....                ",
"                ....XXXXooooOOOOXXXX++++++++XXXXooooooooXXXX....                ",
"                ....XXXXooooooooXXXX++++++++++++XXXXXXXX....                    ",
"                ....XXXXooooooooXXXX++++++++++++XXXXXXXX....                    ",
"                ....XXXXooooooooXXXX++++++++++++XXXXXXXX....                    ",
"                ....XXXXooooooooXXXX++++++++++++XXXXXXXX....                    ",
"                    ....XXXXXXXX++++++++++++++++++++@@@@....                    ",
"                    ....XXXXXXXX++++++++++++++++++++@@@@....                    ",
"                    ....XXXXXXXX++++++++++++++++++++@@@@....                    ",
"                    ....XXXXXXXX++++++++++++++++++++@@@@....                    ",
"                    ....@@@@++++++++++++++++++++++++@@@@....                    ",
"                    ....@@@@++++++++++++++++++++++++@@@@....                    ",
"                    ....@@@@++++++++++++++++++++++++@@@@....                    ",
"                    ....@@@@++++++++++++++++++++++++@@@@....                    ",
"                    ....@@@@++++++++++++++++############....                    ",
"                    ....@@@@++++++++++++++++############....                    ",
"                    ....@@@@++++++++++++++++############....                    ",
"                    ....@@@@++++++++++++++++############....                    ",
"                    ....####@@@@############++++++++@@@@....                    ",
"                    ....####@@@@############++++++++@@@@....                    ",
"                    ....####@@@@############++++++++@@@@....                    ",
"                    ....####@@@@############++++++++@@@@....                    ",
"                        ....####@@@@++++++++++++@@@@####....                    ",
"                        ....####@@@@++++++++++++@@@@####....                    ",
"                        ....####@@@@++++++++++++@@@@####....                    ",
"                        ....####@@@@++++++++++++@@@@####....                    ",
"                        ....++++@@@@@@@@@@@@@@@@####@@@@....                    ",
"                        ....++++@@@@@@@@@@@@@@@@####@@@@....                    ",
"                        ....++++@@@@@@@@@@@@@@@@####@@@@....                    ",
"                        ....++++@@@@@@@@@@@@@@@@####@@@@....                    ",
"                    ....++++++++@@@@++++++++++++####@@@@++++....                ",
"                    ....++++++++@@@@++++++++++++####@@@@++++....                ",
"                    ....++++++++@@@@++++++++++++####@@@@++++....                ",
"                    ....++++++++@@@@++++++++++++####@@@@++++....                ",
"                ....++++++++####++++++++++++++++########@@@@....                ",
"                ....++++++++####++++++++++++++++########@@@@....                ",
"                ....++++++++####++++++++++++++++########@@@@....                ",
"                ....++++++++####++++++++++++++++########@@@@....                ",
"                ....++++@@@@####++++++++++++++++++++........                    ",
"                ....++++@@@@####++++++++++++++++++++........                    ",
"                ....++++@@@@####++++++++++++++++++++........                    ",
"                ....++++@@@@####++++++++++++++++++++........                    ",
"                    ........@@@@++++++++++++++++++++....                        ",
"                    ........@@@@++++++++++++++++++++....                        ",
"                    ........@@@@++++++++++++++++++++....                        ",
"                    ........@@@@++++++++++++++++++++....                        ",
"                        ....@@@@++++@@@@####@@@@++++....                        ",
"                        ....@@@@++++@@@@####@@@@++++....                        ",
"                        ....@@@@++++@@@@####@@@@++++....                        ",
"                        ....@@@@++++@@@@####@@@@++++....                        ",
"                        ....@@@@++++@@@@............                            ",
"                        ....@@@@++++@@@@............                            ",
"                        ....@@@@++++@@@@............                            ",
"                        ....@@@@++++@@@@............                            ",
"                            ............                                        ",
"                            ............                                        ",
"                            ............                                        ",
"                            ............                                        ",
"                                                                                ",
"                                                                                ",
"                                                                                ",
"                                                                                "
};
