/* XPM */
static char *out_3[] = {
/* columns rows colors chars-per-pixel */
"80 112 9 1 ",
"  c None",
". c #282828",
"X c white",
"o c #575257",
"O c #3C3C3C",
"+ c #9FC578",
"@ c #729F44",
"# c #506F30",
"$ c white",
/* pixels */
"                                                                                ",
"                                                                                ",
"                                                                                ",
"                                                                                ",
"                                                                                ",
"                                                                                ",
"                                                                                ",
"                                                                                ",
"                                                                                ",
"                                                                                ",
"                                                                                ",
"                                                                                ",
"                                                                                ",
"                                                                                ",
"                                                                                ",
"                                                                                ",
"                                                                                ",
"                                                                                ",
"                                                                                ",
"                                                                                ",
"                                                                                ",
"                                                                                ",
"                                                                                ",
"                                                                                ",
"                                                                                ",
"                                                                                ",
"                                                                                ",
"                                                                                ",
"                                                                                ",
"                                                                                ",
"                                                                                ",
"                                                                                ",
"                                                                                ",
"                                                                                ",
"                                                                                ",
"                                                                                ",
"                                                                                ",
"                                                                                ",
"                                                                                ",
"                                                                                ",
"                        ........                                                ",
"                        ........                                                ",
"                        ........                                                ",
"                        ........                                                ",
"                    ....XXXXXXXX....            ........                        ",
"                    ....XXXXXXXX....            ........                        ",
"                    ....XXXXXXXX....            ........                        ",
"                    ....XXXXXXXX....            ........                        ",
"                ....XXXXooooOOOOXXXX............XXXXXXXX....                    ",
"                ....XXXXooooOOOOXXXX............XXXXXXXX....                    ",
"                ....XXXXooooOOOOXXXX............XXXXXXXX....                    ",
"                ....XXXXooooOOOOXXXX............XXXXXXXX....                    ",
"                ....XXXXOOOOOOOOXXXX++++++++XXXXooooOOOOXXXX....                ",
"                ....XXXXOOOOOOOOXXXX++++++++XXXXooooOOOOXXXX....                ",
"                ....XXXXOOOOOOOOXXXX++++++++XXXXooooOOOOXXXX....                ",
"                ....XXXXOOOOOOOOXXXX++++++++XXXXooooOOOOXXXX....                ",
"                    ....XXXXXXXX++++++++++++XXXXOOOOOOOOXXXX....                ",
"                    ....XXXXXXXX++++++++++++XXXXOOOOOOOOXXXX....                ",
"                    ....XXXXXXXX++++++++++++XXXXOOOOOOOOXXXX....                ",
"                    ....XXXXXXXX++++++++++++XXXXOOOOOOOOXXXX....                ",
"                    ....@@@@++++++++++++++++++++XXXXXXXX....                    ",
"                    ....@@@@++++++++++++++++++++XXXXXXXX....                    ",
"                    ....@@@@++++++++++++++++++++XXXXXXXX....                    ",
"                    ....@@@@++++++++++++++++++++XXXXXXXX....                    ",
"                    ....@@@@++++++++++++++++++++++++@@@@....                    ",
"                    ....@@@@++++++++++++++++++++++++@@@@....                    ",
"                    ....@@@@++++++++++++++++++++++++@@@@....                    ",
"                    ....@@@@++++++++++++++++++++++++@@@@....                    ",
"                    ....############++++++++++++++++@@@@....                    ",
"                    ....############++++++++++++++++@@@@....                    ",
"                    ....############++++++++++++++++@@@@....                    ",
"                    ....############++++++++++++++++@@@@....                    ",
"                    ....@@@@++++++++############@@@@####....                    ",
"                    ....@@@@++++++++############@@@@####....                    ",
"                    ....@@@@++++++++############@@@@####....                    ",
"                    ....@@@@++++++++############@@@@####....                    ",
"                    ....@@@@++++++++++++++++@@@@####....                        ",
"                    ....@@@@++++++++++++++++@@@@####....                        ",
"                    ....@@@@++++++++++++++++@@@@####....                        ",
"                    ....@@@@++++++++++++++++@@@@####....                        ",
"                        ....####@@@@@@@@@@@@@@@@++++....                        ",
"                        ....####@@@@@@@@@@@@@@@@++++....                        ",
"                        ....####@@@@@@@@@@@@@@@@++++....                        ",
"                        ....####@@@@@@@@@@@@@@@@++++....                        ",
"                        ....####++++++++++++@@@@++++....                        ",
"                        ....####++++++++++++@@@@++++....                        ",
"                        ....####++++++++++++@@@@++++....                        ",
"                        ....####++++++++++++@@@@++++....                        ",
"                        ....####++++++++####++++++++....                        ",
"                        ....####++++++++####++++++++....                        ",
"                        ....####++++++++####++++++++....                        ",
"                        ....####++++++++####++++++++....                        ",
"                        ....++++++++++++####++++@@@@....                        ",
"                        ....++++++++++++####++++@@@@....                        ",
"                        ....++++++++++++####++++@@@@....                        ",
"                        ....++++++++++++####++++@@@@....                        ",
"                        ....++++++++@@@@################....                    ",
"                        ....++++++++@@@@################....                    ",
"                        ....++++++++@@@@################....                    ",
"                        ....++++++++@@@@################....                    ",
"                    ....@@@@++++@@@@........####@@@@@@@@....                    ",
"                    ....@@@@++++@@@@........####@@@@@@@@....                    ",
"                    ....@@@@++++@@@@........####@@@@@@@@....                    ",
"                    ....@@@@++++@@@@........####@@@@@@@@....                    ",
"                        ............        ............                        ",
"                        ............        ............                        ",
"                        ............        ............                        ",
"                        ............        ............                        ",
"                                                                                ",
"                                                                                ",
"                                                                                ",
"                                                                                "
};
