/* XPM */
static char *out_17[] = {
/* columns rows colors chars-per-pixel */
"80 112 6 1 ",
"  c None",
". c #282828",
"X c #9FC578",
"o c #729F44",
"O c #506F30",
"+ c white",
/* pixels */
"                                                                                ",
"                                                                                ",
"                                                                                ",
"                                                                                ",
"                                                                                ",
"                                                                                ",
"                                                                                ",
"                                                                                ",
"                                                                                ",
"                                                                                ",
"                                                                                ",
"                                                                                ",
"                                                                                ",
"                                                                                ",
"                                                                                ",
"                                                                                ",
"                                                                                ",
"                                                                                ",
"                                                                                ",
"                                                                                ",
"                                                                                ",
"                                                                                ",
"                                                                                ",
"                                                                                ",
"                                                                                ",
"                                                                                ",
"                                                                                ",
"                                                                                ",
"                                                                                ",
"                                                                                ",
"                                                                                ",
"                                                                                ",
"                                                                                ",
"                                                                                ",
"                                                                                ",
"                                                                                ",
"                                                                                ",
"                                                                                ",
"                                                                                ",
"                                                                                ",
"                                                ........                        ",
"                                                ........                        ",
"                                                ........                        ",
"                                                ........                        ",
"                        ........            ....XXXXoooo....                    ",
"                        ........            ....XXXXoooo....                    ",
"                        ........            ....XXXXoooo....                    ",
"                        ........            ....XXXXoooo....                    ",
"                    ....ooooXXXX............XXXXXXXXXXXXoooo....                ",
"                    ....ooooXXXX............XXXXXXXXXXXXoooo....                ",
"                    ....ooooXXXX............XXXXXXXXXXXXoooo....                ",
"                    ....ooooXXXX............XXXXXXXXXXXXoooo....                ",
"                ....ooooXXXXXXXXXXXXXXXXXXXXXXXXXXXXXXXXoooo....                ",
"                ....ooooXXXXXXXXXXXXXXXXXXXXXXXXXXXXXXXXoooo....                ",
"                ....ooooXXXXXXXXXXXXXXXXXXXXXXXXXXXXXXXXoooo....                ",
"                ....ooooXXXXXXXXXXXXXXXXXXXXXXXXXXXXXXXXoooo....                ",
"                ....ooooXXXXXXXXXXXXXXXXXXXXXXXXXXXXXXXX....                    ",
"                ....ooooXXXXXXXXXXXXXXXXXXXXXXXXXXXXXXXX....                    ",
"                ....ooooXXXXXXXXXXXXXXXXXXXXXXXXXXXXXXXX....                    ",
"                ....ooooXXXXXXXXXXXXXXXXXXXXXXXXXXXXXXXX....                    ",
"                    ....XXXXXXXXXXXXXXXXXXXXXXXXXXXXoooo....                    ",
"                    ....XXXXXXXXXXXXXXXXXXXXXXXXXXXXoooo....                    ",
"                    ....XXXXXXXXXXXXXXXXXXXXXXXXXXXXoooo....                    ",
"                    ....XXXXXXXXXXXXXXXXXXXXXXXXXXXXoooo....                    ",
"                    ....XXXXXXXXXXXXXXXXXXXXXXXXXXXXoooo....                    ",
"                    ....XXXXXXXXXXXXXXXXXXXXXXXXXXXXoooo....                    ",
"                    ....XXXXXXXXXXXXXXXXXXXXXXXXXXXXoooo....                    ",
"                    ....XXXXXXXXXXXXXXXXXXXXXXXXXXXXoooo....                    ",
"                    ....ooooXXXXXXXXXXXXXXXXXXXXXXXXoooo....                    ",
"                    ....ooooXXXXXXXXXXXXXXXXXXXXXXXXoooo....                    ",
"                    ....ooooXXXXXXXXXXXXXXXXXXXXXXXXoooo....                    ",
"                    ....ooooXXXXXXXXXXXXXXXXXXXXXXXXoooo....                    ",
"                        ....ooooXXXXXXXXXXXXXXXXooooOOOO....                    ",
"                        ....ooooXXXXXXXXXXXXXXXXooooOOOO....                    ",
"                        ....ooooXXXXXXXXXXXXXXXXooooOOOO....                    ",
"                        ....ooooXXXXXXXXXXXXXXXXooooOOOO....                    ",
"                        ....OOOOooooXXXXXXXXooooOOOO....                        ",
"                        ....OOOOooooXXXXXXXXooooOOOO....                        ",
"                        ....OOOOooooXXXXXXXXooooOOOO....                        ",
"                        ....OOOOooooXXXXXXXXooooOOOO....                        ",
"                        ....XXXXooooooooooooooooOOOO....                        ",
"                        ....XXXXooooooooooooooooOOOO....                        ",
"                        ....XXXXooooooooooooooooOOOO....                        ",
"                        ....XXXXooooooooooooooooOOOO....                        ",
"                        ....XXXXooooXXXXXXXXXXXXOOOO....                        ",
"                        ....XXXXooooXXXXXXXXXXXXOOOO....                        ",
"                        ....XXXXooooXXXXXXXXXXXXOOOO....                        ",
"                        ....XXXXooooXXXXXXXXXXXXOOOO....                        ",
"                    ....XXXXXXXXOOOOXXXXXXXXXXXXOOOO....                        ",
"                    ....XXXXXXXXOOOOXXXXXXXXXXXXOOOO....                        ",
"                    ....XXXXXXXXOOOOXXXXXXXXXXXXOOOO....                        ",
"                    ....XXXXXXXXOOOOXXXXXXXXXXXXOOOO....                        ",
"                    ....XXXXooooOOOOXXXXXXXXXXXXXXXX....                        ",
"                    ....XXXXooooOOOOXXXXXXXXXXXXXXXX....                        ",
"                    ....XXXXooooOOOOXXXXXXXXXXXXXXXX....                        ",
"                    ....XXXXooooOOOOXXXXXXXXXXXXXXXX....                        ",
"                    ....OOOOOOOOooooooooOOOOXXXXXXXXoooo....                    ",
"                    ....OOOOOOOOooooooooOOOOXXXXXXXXoooo....                    ",
"                    ....OOOOOOOOooooooooOOOOXXXXXXXXoooo....                    ",
"                    ....OOOOOOOOooooooooOOOOXXXXXXXXoooo....                    ",
"                    ....OOOOooooOOOO........OOOOooooXXXX....                    ",
"                    ....OOOOooooOOOO........OOOOooooXXXX....                    ",
"                    ....OOOOooooOOOO........OOOOooooXXXX....                    ",
"                    ....OOOOooooOOOO........OOOOooooXXXX....                    ",
"                        ............        ............                        ",
"                        ............        ............                        ",
"                        ............        ............                        ",
"                        ............        ............                        ",
"                                                                                ",
"                                                                                ",
"                                                                                ",
"                                                                                "
};
