/* XPM */
static char *out_16[] = {
/* columns rows colors chars-per-pixel */
"80 112 6 1 ",
"  c None",
". c #282828",
"X c #9FC578",
"o c #729F44",
"O c #506F30",
"+ c white",
/* pixels */
"                                                                                ",
"                                                                                ",
"                                                                                ",
"                                                                                ",
"                                                                                ",
"                                                                                ",
"                                                                                ",
"                                                                                ",
"                                                                                ",
"                                                                                ",
"                                                                                ",
"                                                                                ",
"                                                                                ",
"                                                                                ",
"                                                                                ",
"                                                                                ",
"                                                                                ",
"                                                                                ",
"                                                                                ",
"                                                                                ",
"                                                                                ",
"                                                                                ",
"                                                                                ",
"                                                                                ",
"                                                                                ",
"                                                                                ",
"                                                                                ",
"                                                                                ",
"                                                                                ",
"                                                                                ",
"                                                                                ",
"                                                                                ",
"                                                                                ",
"                                                                                ",
"                                                                                ",
"                                                                                ",
"                                                ........                        ",
"                                                ........                        ",
"                                                ........                        ",
"                                                ........                        ",
"                        ........            ....XXXXoooo....                    ",
"                        ........            ....XXXXoooo....                    ",
"                        ........            ....XXXXoooo....                    ",
"                        ........            ....XXXXoooo....                    ",
"                    ....ooooXXXX............XXXXXXXXXXXXoooo....                ",
"                    ....ooooXXXX............XXXXXXXXXXXXoooo....                ",
"                    ....ooooXXXX............XXXXXXXXXXXXoooo....                ",
"                    ....ooooXXXX............XXXXXXXXXXXXoooo....                ",
"                ....ooooXXXXXXXXXXXXXXXXXXXXXXXXXXXXXXXXoooo....                ",
"                ....ooooXXXXXXXXXXXXXXXXXXXXXXXXXXXXXXXXoooo....                ",
"                ....ooooXXXXXXXXXXXXXXXXXXXXXXXXXXXXXXXXoooo....                ",
"                ....ooooXXXXXXXXXXXXXXXXXXXXXXXXXXXXXXXXoooo....                ",
"                ....ooooXXXXXXXXXXXXXXXXXXXXXXXXXXXXXXXX....                    ",
"                ....ooooXXXXXXXXXXXXXXXXXXXXXXXXXXXXXXXX....                    ",
"                ....ooooXXXXXXXXXXXXXXXXXXXXXXXXXXXXXXXX....                    ",
"                ....ooooXXXXXXXXXXXXXXXXXXXXXXXXXXXXXXXX....                    ",
"                    ....XXXXXXXXXXXXXXXXXXXXXXXXXXXXoooo....                    ",
"                    ....XXXXXXXXXXXXXXXXXXXXXXXXXXXXoooo....                    ",
"                    ....XXXXXXXXXXXXXXXXXXXXXXXXXXXXoooo....                    ",
"                    ....XXXXXXXXXXXXXXXXXXXXXXXXXXXXoooo....                    ",
"                    ....XXXXXXXXXXXXXXXXXXXXXXXXXXXXoooo....                    ",
"                    ....XXXXXXXXXXXXXXXXXXXXXXXXXXXXoooo....                    ",
"                    ....XXXXXXXXXXXXXXXXXXXXXXXXXXXXoooo....                    ",
"                    ....XXXXXXXXXXXXXXXXXXXXXXXXXXXXoooo....                    ",
"                    ....ooooXXXXXXXXXXXXXXXXXXXXXXXXoooo....                    ",
"                    ....ooooXXXXXXXXXXXXXXXXXXXXXXXXoooo....                    ",
"                    ....ooooXXXXXXXXXXXXXXXXXXXXXXXXoooo....                    ",
"                    ....ooooXXXXXXXXXXXXXXXXXXXXXXXXoooo....                    ",
"                        ....ooooXXXXXXXXXXXXXXXXXXXXOOOO....                    ",
"                        ....ooooXXXXXXXXXXXXXXXXXXXXOOOO....                    ",
"                        ....ooooXXXXXXXXXXXXXXXXXXXXOOOO....                    ",
"                        ....ooooXXXXXXXXXXXXXXXXXXXXOOOO....                    ",
"                        ....OOOOooooXXXXXXXXooooOOOO....                        ",
"                        ....OOOOooooXXXXXXXXooooOOOO....                        ",
"                        ....OOOOooooXXXXXXXXooooOOOO....                        ",
"                        ....OOOOooooXXXXXXXXooooOOOO....                        ",
"                        ....XXXXooooooooooooooooOOOOoooo....                    ",
"                        ....XXXXooooooooooooooooOOOOoooo....                    ",
"                        ....XXXXooooooooooooooooOOOOoooo....                    ",
"                        ....XXXXooooooooooooooooOOOOoooo....                    ",
"                    ....XXXXXXXXooooXXXXXXXXXXXXOOOOooooXXXX....                ",
"                    ....XXXXXXXXooooXXXXXXXXXXXXOOOOooooXXXX....                ",
"                    ....XXXXXXXXooooXXXXXXXXXXXXOOOOooooXXXX....                ",
"                    ....XXXXXXXXooooXXXXXXXXXXXXOOOOooooXXXX....                ",
"                ....XXXXXXXXOOOOXXXXXXXXXXXXXXXXOOOOOOOOoooo....                ",
"                ....XXXXXXXXOOOOXXXXXXXXXXXXXXXXOOOOOOOOoooo....                ",
"                ....XXXXXXXXOOOOXXXXXXXXXXXXXXXXOOOOOOOOoooo....                ",
"                ....XXXXXXXXOOOOXXXXXXXXXXXXXXXXOOOOOOOOoooo....                ",
"                ....XXXXooooOOOOXXXXXXXXXXXXXXXXXXXX........                    ",
"                ....XXXXooooOOOOXXXXXXXXXXXXXXXXXXXX........                    ",
"                ....XXXXooooOOOOXXXXXXXXXXXXXXXXXXXX........                    ",
"                ....XXXXooooOOOOXXXXXXXXXXXXXXXXXXXX........                    ",
"                    ........ooooXXXXXXXXXXXXXXXXXXXX....                        ",
"                    ........ooooXXXXXXXXXXXXXXXXXXXX....                        ",
"                    ........ooooXXXXXXXXXXXXXXXXXXXX....                        ",
"                    ........ooooXXXXXXXXXXXXXXXXXXXX....                        ",
"                        ....XXXXXXXXooooOOOOooooXXXX....                        ",
"                        ....XXXXXXXXooooOOOOooooXXXX....                        ",
"                        ....XXXXXXXXooooOOOOooooXXXX....                        ",
"                        ....XXXXXXXXooooOOOOooooXXXX....                        ",
"                        ....XXXXXXXXoooo............                            ",
"                        ....XXXXXXXXoooo............                            ",
"                        ....XXXXXXXXoooo............                            ",
"                        ....XXXXXXXXoooo............                            ",
"                            ............                                        ",
"                            ............                                        ",
"                            ............                                        ",
"                            ............                                        ",
"                                                                                ",
"                                                                                ",
"                                                                                ",
"                                                                                "
};
