/* XPM */
static char *a[] = {
/* columns rows colors chars-per-pixel */
"64 64 5 1 ",
"  c None",
". c #282828",
"X c white",
"o c #C21C1C",
"O c white",
/* pixels */
"                ....................................            ",
"                ....................................            ",
"                ....................................            ",
"                ....................................            ",
"            ....XXXXXXXXXXXXXXXXXXXXXXXXXXXXXXXXXXXX....        ",
"            ....XXXXXXXXXXXXXXXXXXXXXXXXXXXXXXXXXXXX....        ",
"            ....XXXXXXXXXXXXXXXXXXXXXXXXXXXXXXXXXXXX....        ",
"            ....XXXXXXXXXXXXXXXXXXXXXXXXXXXXXXXXXXXX....        ",
"        ....XXXXXXXXXXXXXXXXXXXXooooXXXXXXXXXXXXXXXXXXXX....    ",
"        ....XXXXXXXXXXXXXXXXXXXXooooXXXXXXXXXXXXXXXXXXXX....    ",
"        ....XXXXXXXXXXXXXXXXXXXXooooXXXXXXXXXXXXXXXXXXXX....    ",
"        ....XXXXXXXXXXXXXXXXXXXXooooXXXXXXXXXXXXXXXXXXXX....    ",
"        ....XXXXXXXXXXXXXXXXXXXXooooXXXXXXXXXXXXXXXXXXXX....    ",
"        ....XXXXXXXXXXXXXXXXXXXXooooXXXXXXXXXXXXXXXXXXXX....    ",
"        ....XXXXXXXXXXXXXXXXXXXXooooXXXXXXXXXXXXXXXXXXXX....    ",
"        ....XXXXXXXXXXXXXXXXXXXXooooXXXXXXXXXXXXXXXXXXXX....    ",
"        ....XXXXXXXXXXXXXXXXXXXXooooXXXXXXXXXXXXXXXXXXXX....    ",
"        ....XXXXXXXXXXXXXXXXXXXXooooXXXXXXXXXXXXXXXXXXXX....    ",
"        ....XXXXXXXXXXXXXXXXXXXXooooXXXXXXXXXXXXXXXXXXXX....    ",
"        ....XXXXXXXXXXXXXXXXXXXXooooXXXXXXXXXXXXXXXXXXXX....    ",
"        ....XXXXXXXXXXXXXXXXXXXXooooXXXXXXXXXXXXXXXXXXXX....    ",
"        ....XXXXXXXXXXXXXXXXXXXXooooXXXXXXXXXXXXXXXXXXXX....    ",
"        ....XXXXXXXXXXXXXXXXXXXXooooXXXXXXXXXXXXXXXXXXXX....    ",
"        ....XXXXXXXXXXXXXXXXXXXXooooXXXXXXXXXXXXXXXXXXXX....    ",
"        ....XXXXXXXXXXXXXXXXXXXXXXXXXXXXXXXXXXXXXXXXXXXX....    ",
"        ....XXXXXXXXXXXXXXXXXXXXXXXXXXXXXXXXXXXXXXXXXXXX....    ",
"        ....XXXXXXXXXXXXXXXXXXXXXXXXXXXXXXXXXXXXXXXXXXXX....    ",
"        ....XXXXXXXXXXXXXXXXXXXXXXXXXXXXXXXXXXXXXXXXXXXX....    ",
"        ....XXXXXXXXXXXXXXXXXXXXooooXXXXXXXXXXXXXXXXXXXX....    ",
"        ....XXXXXXXXXXXXXXXXXXXXooooXXXXXXXXXXXXXXXXXXXX....    ",
"        ....XXXXXXXXXXXXXXXXXXXXooooXXXXXXXXXXXXXXXXXXXX....    ",
"        ....XXXXXXXXXXXXXXXXXXXXooooXXXXXXXXXXXXXXXXXXXX....    ",
"            ....XXXXXXXXXXXXXXXXXXXXXXXXXXXXXXXXXXXX....        ",
"            ....XXXXXXXXXXXXXXXXXXXXXXXXXXXXXXXXXXXX....        ",
"            ....XXXXXXXXXXXXXXXXXXXXXXXXXXXXXXXXXXXX....        ",
"            ....XXXXXXXXXXXXXXXXXXXXXXXXXXXXXXXXXXXX....        ",
"                ............XXXXXXXXXXXX............            ",
"                ............XXXXXXXXXXXX............            ",
"                ............XXXXXXXXXXXX............            ",
"                ............XXXXXXXXXXXX............            ",
"                            ....XXXX....                        ",
"                            ....XXXX....                        ",
"                            ....XXXX....                        ",
"                            ....XXXX....                        ",
"                                ....                            ",
"                                ....                            ",
"                                ....                            ",
"                                ....                            ",
"                                                                ",
"                                                                ",
"                                                                ",
"                                                                ",
"                                                                ",
"                                                                ",
"                                                                ",
"                                                                ",
"                                                                ",
"                                                                ",
"                                                                ",
"                                                                ",
"                                                                ",
"                                                                ",
"                                                                ",
"                                                                "
};
