/* XPM */
static char *c[] = {
/* columns rows colors chars-per-pixel */
"64 64 5 1 ",
"  c None",
". c #282828",
"X c white",
"o c #C21C1C",
"O c white",
/* pixels */
"                ....................................            ",
"                ....................................            ",
"                ....................................            ",
"                ....................................            ",
"            ....XXXXXXXXXXXXXXXXXXXXXXXXXXXXXXXXXXXX....        ",
"            ....XXXXXXXXXXXXXXXXXXXXXXXXXXXXXXXXXXXX....        ",
"            ....XXXXXXXXXXXXXXXXXXXXXXXXXXXXXXXXXXXX....        ",
"            ....XXXXXXXXXXXXXXXXXXXXXXXXXXXXXXXXXXXX....        ",
"        ....XXXXXXXXXXXXXXXXXXXXXXXXXXXXXXXXXXXXXXXXXXXX....    ",
"        ....XXXXXXXXXXXXXXXXXXXXXXXXXXXXXXXXXXXXXXXXXXXX....    ",
"        ....XXXXXXXXXXXXXXXXXXXXXXXXXXXXXXXXXXXXXXXXXXXX....    ",
"        ....XXXXXXXXXXXXXXXXXXXXXXXXXXXXXXXXXXXXXXXXXXXX....    ",
"        ....XXXXXXXXXXXXXXXXooooXXXXooooXXXXXXXXXXXXXXXX....    ",
"        ....XXXXXXXXXXXXXXXXooooXXXXooooXXXXXXXXXXXXXXXX....    ",
"        ....XXXXXXXXXXXXXXXXooooXXXXooooXXXXXXXXXXXXXXXX....    ",
"        ....XXXXXXXXXXXXXXXXooooXXXXooooXXXXXXXXXXXXXXXX....    ",
"        ....XXXXXXXXXXXXooooooooXXXXooooooooXXXXXXXXXXXX....    ",
"        ....XXXXXXXXXXXXooooooooXXXXooooooooXXXXXXXXXXXX....    ",
"        ....XXXXXXXXXXXXooooooooXXXXooooooooXXXXXXXXXXXX....    ",
"        ....XXXXXXXXXXXXooooooooXXXXooooooooXXXXXXXXXXXX....    ",
"        ....XXXXXXXXXXXXXXXXXXXXXXXXXXXXXXXXXXXXXXXXXXXX....    ",
"        ....XXXXXXXXXXXXXXXXXXXXXXXXXXXXXXXXXXXXXXXXXXXX....    ",
"        ....XXXXXXXXXXXXXXXXXXXXXXXXXXXXXXXXXXXXXXXXXXXX....    ",
"        ....XXXXXXXXXXXXXXXXXXXXXXXXXXXXXXXXXXXXXXXXXXXX....    ",
"        ....XXXXXXXXXXXXooooooooXXXXooooooooXXXXXXXXXXXX....    ",
"        ....XXXXXXXXXXXXooooooooXXXXooooooooXXXXXXXXXXXX....    ",
"        ....XXXXXXXXXXXXooooooooXXXXooooooooXXXXXXXXXXXX....    ",
"        ....XXXXXXXXXXXXooooooooXXXXooooooooXXXXXXXXXXXX....    ",
"        ....XXXXXXXXXXXXXXXXooooXXXXooooXXXXXXXXXXXXXXXX....    ",
"        ....XXXXXXXXXXXXXXXXooooXXXXooooXXXXXXXXXXXXXXXX....    ",
"        ....XXXXXXXXXXXXXXXXooooXXXXooooXXXXXXXXXXXXXXXX....    ",
"        ....XXXXXXXXXXXXXXXXooooXXXXooooXXXXXXXXXXXXXXXX....    ",
"            ....XXXXXXXXXXXXXXXXXXXXXXXXXXXXXXXXXXXX....        ",
"            ....XXXXXXXXXXXXXXXXXXXXXXXXXXXXXXXXXXXX....        ",
"            ....XXXXXXXXXXXXXXXXXXXXXXXXXXXXXXXXXXXX....        ",
"            ....XXXXXXXXXXXXXXXXXXXXXXXXXXXXXXXXXXXX....        ",
"                ............XXXXXXXXXXXX............            ",
"                ............XXXXXXXXXXXX............            ",
"                ............XXXXXXXXXXXX............            ",
"                ............XXXXXXXXXXXX............            ",
"                            ....XXXX....                        ",
"                            ....XXXX....                        ",
"                            ....XXXX....                        ",
"                            ....XXXX....                        ",
"                                ....                            ",
"                                ....                            ",
"                                ....                            ",
"                                ....                            ",
"                                                                ",
"                                                                ",
"                                                                ",
"                                                                ",
"                                                                ",
"                                                                ",
"                                                                ",
"                                                                ",
"                                                                ",
"                                                                ",
"                                                                ",
"                                                                ",
"                                                                ",
"                                                                ",
"                                                                ",
"                                                                "
};
