/* XPM */
static char *d[] = {
/* columns rows colors chars-per-pixel */
"64 64 5 1 ",
"  c None",
". c #282828",
"X c white",
"o c #565697",
"O c white",
/* pixels */
"                ....................................            ",
"                ....................................            ",
"                ....................................            ",
"                ....................................            ",
"            ....XXXXXXXXXXXXXXXXXXXXXXXXXXXXXXXXXXXX....        ",
"            ....XXXXXXXXXXXXXXXXXXXXXXXXXXXXXXXXXXXX....        ",
"            ....XXXXXXXXXXXXXXXXXXXXXXXXXXXXXXXXXXXX....        ",
"            ....XXXXXXXXXXXXXXXXXXXXXXXXXXXXXXXXXXXX....        ",
"        ....XXXXXXXXXXXXooooXXXXooooXXXXooooXXXXXXXXXXXX....    ",
"        ....XXXXXXXXXXXXooooXXXXooooXXXXooooXXXXXXXXXXXX....    ",
"        ....XXXXXXXXXXXXooooXXXXooooXXXXooooXXXXXXXXXXXX....    ",
"        ....XXXXXXXXXXXXooooXXXXooooXXXXooooXXXXXXXXXXXX....    ",
"        ....XXXXXXXXXXXXooooXXXXooooXXXXooooXXXXXXXXXXXX....    ",
"        ....XXXXXXXXXXXXooooXXXXooooXXXXooooXXXXXXXXXXXX....    ",
"        ....XXXXXXXXXXXXooooXXXXooooXXXXooooXXXXXXXXXXXX....    ",
"        ....XXXXXXXXXXXXooooXXXXooooXXXXooooXXXXXXXXXXXX....    ",
"        ....XXXXXXXXXXXXooooXXXXooooXXXXooooXXXXXXXXXXXX....    ",
"        ....XXXXXXXXXXXXooooXXXXooooXXXXooooXXXXXXXXXXXX....    ",
"        ....XXXXXXXXXXXXooooXXXXooooXXXXooooXXXXXXXXXXXX....    ",
"        ....XXXXXXXXXXXXooooXXXXooooXXXXooooXXXXXXXXXXXX....    ",
"        ....XXXXXXXXXXXXooooXXXXooooXXXXooooXXXXXXXXXXXX....    ",
"        ....XXXXXXXXXXXXooooXXXXooooXXXXooooXXXXXXXXXXXX....    ",
"        ....XXXXXXXXXXXXooooXXXXooooXXXXooooXXXXXXXXXXXX....    ",
"        ....XXXXXXXXXXXXooooXXXXooooXXXXooooXXXXXXXXXXXX....    ",
"        ....XXXXXXXXXXXXooooXXXXooooXXXXXXXXXXXXXXXXXXXX....    ",
"        ....XXXXXXXXXXXXooooXXXXooooXXXXXXXXXXXXXXXXXXXX....    ",
"        ....XXXXXXXXXXXXooooXXXXooooXXXXXXXXXXXXXXXXXXXX....    ",
"        ....XXXXXXXXXXXXooooXXXXooooXXXXXXXXXXXXXXXXXXXX....    ",
"        ....XXXXXXXXXXXXXXXXXXXXooooXXXXXXXXXXXXXXXXXXXX....    ",
"        ....XXXXXXXXXXXXXXXXXXXXooooXXXXXXXXXXXXXXXXXXXX....    ",
"        ....XXXXXXXXXXXXXXXXXXXXooooXXXXXXXXXXXXXXXXXXXX....    ",
"        ....XXXXXXXXXXXXXXXXXXXXooooXXXXXXXXXXXXXXXXXXXX....    ",
"            ....XXXXXXXXXXXXXXXXXXXXXXXXXXXXXXXXXXXX....        ",
"            ....XXXXXXXXXXXXXXXXXXXXXXXXXXXXXXXXXXXX....        ",
"            ....XXXXXXXXXXXXXXXXXXXXXXXXXXXXXXXXXXXX....        ",
"            ....XXXXXXXXXXXXXXXXXXXXXXXXXXXXXXXXXXXX....        ",
"                ............XXXXXXXXXXXX............            ",
"                ............XXXXXXXXXXXX............            ",
"                ............XXXXXXXXXXXX............            ",
"                ............XXXXXXXXXXXX............            ",
"                            ....XXXX....                        ",
"                            ....XXXX....                        ",
"                            ....XXXX....                        ",
"                            ....XXXX....                        ",
"                                ....                            ",
"                                ....                            ",
"                                ....                            ",
"                                ....                            ",
"                                                                ",
"                                                                ",
"                                                                ",
"                                                                ",
"                                                                ",
"                                                                ",
"                                                                ",
"                                                                ",
"                                                                ",
"                                                                ",
"                                                                ",
"                                                                ",
"                                                                ",
"                                                                ",
"                                                                ",
"                                                                "
};
