/* XPM */
static char *e[] = {
/* columns rows colors chars-per-pixel */
"64 64 6 1 ",
"  c None",
". c #282828",
"X c white",
"o c #C2A51C",
"O c #C26E1C",
"+ c white",
/* pixels */
"                ....................................            ",
"                ....................................            ",
"                ....................................            ",
"                ....................................            ",
"            ....XXXXXXXXXXXXXXXXXXXXXXXXXXXXXXXXXXXX....        ",
"            ....XXXXXXXXXXXXXXXXXXXXXXXXXXXXXXXXXXXX....        ",
"            ....XXXXXXXXXXXXXXXXXXXXXXXXXXXXXXXXXXXX....        ",
"            ....XXXXXXXXXXXXXXXXXXXXXXXXXXXXXXXXXXXX....        ",
"        ....XXXXXXXXXXXXXXXX............XXXXXXXXXXXXXXXX....    ",
"        ....XXXXXXXXXXXXXXXX............XXXXXXXXXXXXXXXX....    ",
"        ....XXXXXXXXXXXXXXXX............XXXXXXXXXXXXXXXX....    ",
"        ....XXXXXXXXXXXXXXXX............XXXXXXXXXXXXXXXX....    ",
"        ....XXXXXXXXXXXX....XXXXoooooooo....XXXXXXXXXXXX....    ",
"        ....XXXXXXXXXXXX....XXXXoooooooo....XXXXXXXXXXXX....    ",
"        ....XXXXXXXXXXXX....XXXXoooooooo....XXXXXXXXXXXX....    ",
"        ....XXXXXXXXXXXX....XXXXoooooooo....XXXXXXXXXXXX....    ",
"        ....XXXXXXXXXXXX....oooooooooooo....XXXXXXXXXXXX....    ",
"        ....XXXXXXXXXXXX....oooooooooooo....XXXXXXXXXXXX....    ",
"        ....XXXXXXXXXXXX....oooooooooooo....XXXXXXXXXXXX....    ",
"        ....XXXXXXXXXXXX....oooooooooooo....XXXXXXXXXXXX....    ",
"        ....XXXXXXXXXXXX....oooooooooooo....XXXXXXXXXXXX....    ",
"        ....XXXXXXXXXXXX....oooooooooooo....XXXXXXXXXXXX....    ",
"        ....XXXXXXXXXXXX....oooooooooooo....XXXXXXXXXXXX....    ",
"        ....XXXXXXXXXXXX....oooooooooooo....XXXXXXXXXXXX....    ",
"        ....XXXXXXXXXXXXXXXX....OOOO....XXXXXXXXXXXXXXXX....    ",
"        ....XXXXXXXXXXXXXXXX....OOOO....XXXXXXXXXXXXXXXX....    ",
"        ....XXXXXXXXXXXXXXXX....OOOO....XXXXXXXXXXXXXXXX....    ",
"        ....XXXXXXXXXXXXXXXX....OOOO....XXXXXXXXXXXXXXXX....    ",
"        ....XXXXXXXXXXXXXXXX............XXXXXXXXXXXXXXXX....    ",
"        ....XXXXXXXXXXXXXXXX............XXXXXXXXXXXXXXXX....    ",
"        ....XXXXXXXXXXXXXXXX............XXXXXXXXXXXXXXXX....    ",
"        ....XXXXXXXXXXXXXXXX............XXXXXXXXXXXXXXXX....    ",
"            ....XXXXXXXXXXXXXXXXXXXXXXXXXXXXXXXXXXXX....        ",
"            ....XXXXXXXXXXXXXXXXXXXXXXXXXXXXXXXXXXXX....        ",
"            ....XXXXXXXXXXXXXXXXXXXXXXXXXXXXXXXXXXXX....        ",
"            ....XXXXXXXXXXXXXXXXXXXXXXXXXXXXXXXXXXXX....        ",
"                ............XXXXXXXXXXXX............            ",
"                ............XXXXXXXXXXXX............            ",
"                ............XXXXXXXXXXXX............            ",
"                ............XXXXXXXXXXXX............            ",
"                            ....XXXX....                        ",
"                            ....XXXX....                        ",
"                            ....XXXX....                        ",
"                            ....XXXX....                        ",
"                                ....                            ",
"                                ....                            ",
"                                ....                            ",
"                                ....                            ",
"                                                                ",
"                                                                ",
"                                                                ",
"                                                                ",
"                                                                ",
"                                                                ",
"                                                                ",
"                                                                ",
"                                                                ",
"                                                                ",
"                                                                ",
"                                                                ",
"                                                                ",
"                                                                ",
"                                                                ",
"                                                                "
};
