/* XPM */
static char *g[] = {
/* columns rows colors chars-per-pixel */
"64 64 5 1 ",
"  c None",
". c #282828",
"X c white",
"o c #677BC5",
"O c white",
/* pixels */
"                ....................................            ",
"                ....................................            ",
"                ....................................            ",
"                ....................................            ",
"            ....XXXXXXXXXXXXXXXXXXXXXXXXXXXXXXXXXXXX....        ",
"            ....XXXXXXXXXXXXXXXXXXXXXXXXXXXXXXXXXXXX....        ",
"            ....XXXXXXXXXXXXXXXXXXXXXXXXXXXXXXXXXXXX....        ",
"            ....XXXXXXXXXXXXXXXXXXXXXXXXXXXXXXXXXXXX....        ",
"        ....XXXXXXXXXXXXXXXXXXXXXXXXXXXXXXXXXXXXXXXXXXXX....    ",
"        ....XXXXXXXXXXXXXXXXXXXXXXXXXXXXXXXXXXXXXXXXXXXX....    ",
"        ....XXXXXXXXXXXXXXXXXXXXXXXXXXXXXXXXXXXXXXXXXXXX....    ",
"        ....XXXXXXXXXXXXXXXXXXXXXXXXXXXXXXXXXXXXXXXXXXXX....    ",
"        ....XXXXXXXXooooooooooooXXXXXXXXXXXXXXXXXXXXXXXX....    ",
"        ....XXXXXXXXooooooooooooXXXXXXXXXXXXXXXXXXXXXXXX....    ",
"        ....XXXXXXXXooooooooooooXXXXXXXXXXXXXXXXXXXXXXXX....    ",
"        ....XXXXXXXXooooooooooooXXXXXXXXXXXXXXXXXXXXXXXX....    ",
"        ....XXXXXXXXXXXXXXXXooooXXXXooooooooooooXXXXXXXX....    ",
"        ....XXXXXXXXXXXXXXXXooooXXXXooooooooooooXXXXXXXX....    ",
"        ....XXXXXXXXXXXXXXXXooooXXXXooooooooooooXXXXXXXX....    ",
"        ....XXXXXXXXXXXXXXXXooooXXXXooooooooooooXXXXXXXX....    ",
"        ....XXXXXXXXXXXXooooXXXXXXXXXXXXXXXXooooXXXXXXXX....    ",
"        ....XXXXXXXXXXXXooooXXXXXXXXXXXXXXXXooooXXXXXXXX....    ",
"        ....XXXXXXXXXXXXooooXXXXXXXXXXXXXXXXooooXXXXXXXX....    ",
"        ....XXXXXXXXXXXXooooXXXXXXXXXXXXXXXXooooXXXXXXXX....    ",
"        ....XXXXXXXXooooXXXXXXXXXXXXXXXXooooXXXXXXXXXXXX....    ",
"        ....XXXXXXXXooooXXXXXXXXXXXXXXXXooooXXXXXXXXXXXX....    ",
"        ....XXXXXXXXooooXXXXXXXXXXXXXXXXooooXXXXXXXXXXXX....    ",
"        ....XXXXXXXXooooXXXXXXXXXXXXXXXXooooXXXXXXXXXXXX....    ",
"        ....XXXXXXXXooooooooooooXXXXooooooooooooXXXXXXXX....    ",
"        ....XXXXXXXXooooooooooooXXXXooooooooooooXXXXXXXX....    ",
"        ....XXXXXXXXooooooooooooXXXXooooooooooooXXXXXXXX....    ",
"        ....XXXXXXXXooooooooooooXXXXooooooooooooXXXXXXXX....    ",
"            ....XXXXXXXXXXXXXXXXXXXXXXXXXXXXXXXXXXXX....        ",
"            ....XXXXXXXXXXXXXXXXXXXXXXXXXXXXXXXXXXXX....        ",
"            ....XXXXXXXXXXXXXXXXXXXXXXXXXXXXXXXXXXXX....        ",
"            ....XXXXXXXXXXXXXXXXXXXXXXXXXXXXXXXXXXXX....        ",
"                ............XXXXXXXXXXXX............            ",
"                ............XXXXXXXXXXXX............            ",
"                ............XXXXXXXXXXXX............            ",
"                ............XXXXXXXXXXXX............            ",
"                            ....XXXX....                        ",
"                            ....XXXX....                        ",
"                            ....XXXX....                        ",
"                            ....XXXX....                        ",
"                                ....                            ",
"                                ....                            ",
"                                ....                            ",
"                                ....                            ",
"                                                                ",
"                                                                ",
"                                                                ",
"                                                                ",
"                                                                ",
"                                                                ",
"                                                                ",
"                                                                ",
"                                                                ",
"                                                                ",
"                                                                ",
"                                                                ",
"                                                                ",
"                                                                ",
"                                                                ",
"                                                                "
};
