/* XPM */
static char *i[] = {
/* columns rows colors chars-per-pixel */
"64 64 5 1 ",
"  c None",
". c #282828",
"X c white",
"o c #C21C1C",
"O c white",
/* pixels */
"                ....................................            ",
"                ....................................            ",
"                ....................................            ",
"                ....................................            ",
"            ....XXXXXXXXXXXXXXXXXXXXXXXXXXXXXXXXXXXX....        ",
"            ....XXXXXXXXXXXXXXXXXXXXXXXXXXXXXXXXXXXX....        ",
"            ....XXXXXXXXXXXXXXXXXXXXXXXXXXXXXXXXXXXX....        ",
"            ....XXXXXXXXXXXXXXXXXXXXXXXXXXXXXXXXXXXX....        ",
"        ....XXXXXXXXXXXXooooXXXXXXXXXXXXooooXXXXXXXXXXXX....    ",
"        ....XXXXXXXXXXXXooooXXXXXXXXXXXXooooXXXXXXXXXXXX....    ",
"        ....XXXXXXXXXXXXooooXXXXXXXXXXXXooooXXXXXXXXXXXX....    ",
"        ....XXXXXXXXXXXXooooXXXXXXXXXXXXooooXXXXXXXXXXXX....    ",
"        ....XXXXXXXXXXXXooooXXXXXXXXooooXXXXooooXXXXXXXX....    ",
"        ....XXXXXXXXXXXXooooXXXXXXXXooooXXXXooooXXXXXXXX....    ",
"        ....XXXXXXXXXXXXooooXXXXXXXXooooXXXXooooXXXXXXXX....    ",
"        ....XXXXXXXXXXXXooooXXXXXXXXooooXXXXooooXXXXXXXX....    ",
"        ....XXXXXXXXXXXXooooXXXXXXXXXXXXXXXXooooXXXXXXXX....    ",
"        ....XXXXXXXXXXXXooooXXXXXXXXXXXXXXXXooooXXXXXXXX....    ",
"        ....XXXXXXXXXXXXooooXXXXXXXXXXXXXXXXooooXXXXXXXX....    ",
"        ....XXXXXXXXXXXXooooXXXXXXXXXXXXXXXXooooXXXXXXXX....    ",
"        ....XXXXXXXXXXXXooooXXXXXXXXXXXXooooXXXXXXXXXXXX....    ",
"        ....XXXXXXXXXXXXooooXXXXXXXXXXXXooooXXXXXXXXXXXX....    ",
"        ....XXXXXXXXXXXXooooXXXXXXXXXXXXooooXXXXXXXXXXXX....    ",
"        ....XXXXXXXXXXXXooooXXXXXXXXXXXXooooXXXXXXXXXXXX....    ",
"        ....XXXXXXXXXXXXXXXXXXXXXXXXXXXXXXXXXXXXXXXXXXXX....    ",
"        ....XXXXXXXXXXXXXXXXXXXXXXXXXXXXXXXXXXXXXXXXXXXX....    ",
"        ....XXXXXXXXXXXXXXXXXXXXXXXXXXXXXXXXXXXXXXXXXXXX....    ",
"        ....XXXXXXXXXXXXXXXXXXXXXXXXXXXXXXXXXXXXXXXXXXXX....    ",
"        ....XXXXXXXXXXXXooooXXXXXXXXXXXXooooXXXXXXXXXXXX....    ",
"        ....XXXXXXXXXXXXooooXXXXXXXXXXXXooooXXXXXXXXXXXX....    ",
"        ....XXXXXXXXXXXXooooXXXXXXXXXXXXooooXXXXXXXXXXXX....    ",
"        ....XXXXXXXXXXXXooooXXXXXXXXXXXXooooXXXXXXXXXXXX....    ",
"            ....XXXXXXXXXXXXXXXXXXXXXXXXXXXXXXXXXXXX....        ",
"            ....XXXXXXXXXXXXXXXXXXXXXXXXXXXXXXXXXXXX....        ",
"            ....XXXXXXXXXXXXXXXXXXXXXXXXXXXXXXXXXXXX....        ",
"            ....XXXXXXXXXXXXXXXXXXXXXXXXXXXXXXXXXXXX....        ",
"                ............XXXXXXXXXXXX............            ",
"                ............XXXXXXXXXXXX............            ",
"                ............XXXXXXXXXXXX............            ",
"                ............XXXXXXXXXXXX............            ",
"                            ....XXXX....                        ",
"                            ....XXXX....                        ",
"                            ....XXXX....                        ",
"                            ....XXXX....                        ",
"                                ....                            ",
"                                ....                            ",
"                                ....                            ",
"                                ....                            ",
"                                                                ",
"                                                                ",
"                                                                ",
"                                                                ",
"                                                                ",
"                                                                ",
"                                                                ",
"                                                                ",
"                                                                ",
"                                                                ",
"                                                                ",
"                                                                ",
"                                                                ",
"                                                                ",
"                                                                ",
"                                                                "
};
