/* XPM */
static char *j[] = {
/* columns rows colors chars-per-pixel */
"64 64 5 1 ",
"  c None",
". c #282828",
"X c white",
"o c #F78EB5",
"O c white",
/* pixels */
"                ....................................            ",
"                ....................................            ",
"                ....................................            ",
"                ....................................            ",
"            ....XXXXXXXXXXXXXXXXXXXXXXXXXXXXXXXXXXXX....        ",
"            ....XXXXXXXXXXXXXXXXXXXXXXXXXXXXXXXXXXXX....        ",
"            ....XXXXXXXXXXXXXXXXXXXXXXXXXXXXXXXXXXXX....        ",
"            ....XXXXXXXXXXXXXXXXXXXXXXXXXXXXXXXXXXXX....        ",
"        ....XXXXXXXXXXXXXXXXXXXXXXXXXXXXXXXXXXXXXXXXXXXX....    ",
"        ....XXXXXXXXXXXXXXXXXXXXXXXXXXXXXXXXXXXXXXXXXXXX....    ",
"        ....XXXXXXXXXXXXXXXXXXXXXXXXXXXXXXXXXXXXXXXXXXXX....    ",
"        ....XXXXXXXXXXXXXXXXXXXXXXXXXXXXXXXXXXXXXXXXXXXX....    ",
"        ....XXXXXXXXXXXXooooXXXXXXXXooooXXXXXXXXooooXXXX....    ",
"        ....XXXXXXXXXXXXooooXXXXXXXXooooXXXXXXXXooooXXXX....    ",
"        ....XXXXXXXXXXXXooooXXXXXXXXooooXXXXXXXXooooXXXX....    ",
"        ....XXXXXXXXXXXXooooXXXXXXXXooooXXXXXXXXooooXXXX....    ",
"        ....XXXXXXXXooooXXXXXXXXooooXXXXXXXXooooXXXXXXXX....    ",
"        ....XXXXXXXXooooXXXXXXXXooooXXXXXXXXooooXXXXXXXX....    ",
"        ....XXXXXXXXooooXXXXXXXXooooXXXXXXXXooooXXXXXXXX....    ",
"        ....XXXXXXXXooooXXXXXXXXooooXXXXXXXXooooXXXXXXXX....    ",
"        ....XXXXXXXXooooXXXXXXXXooooXXXXXXXXooooXXXXXXXX....    ",
"        ....XXXXXXXXooooXXXXXXXXooooXXXXXXXXooooXXXXXXXX....    ",
"        ....XXXXXXXXooooXXXXXXXXooooXXXXXXXXooooXXXXXXXX....    ",
"        ....XXXXXXXXooooXXXXXXXXooooXXXXXXXXooooXXXXXXXX....    ",
"        ....XXXXooooXXXXXXXXooooXXXXXXXXooooXXXXXXXXXXXX....    ",
"        ....XXXXooooXXXXXXXXooooXXXXXXXXooooXXXXXXXXXXXX....    ",
"        ....XXXXooooXXXXXXXXooooXXXXXXXXooooXXXXXXXXXXXX....    ",
"        ....XXXXooooXXXXXXXXooooXXXXXXXXooooXXXXXXXXXXXX....    ",
"        ....XXXXXXXXXXXXXXXXXXXXXXXXXXXXXXXXXXXXXXXXXXXX....    ",
"        ....XXXXXXXXXXXXXXXXXXXXXXXXXXXXXXXXXXXXXXXXXXXX....    ",
"        ....XXXXXXXXXXXXXXXXXXXXXXXXXXXXXXXXXXXXXXXXXXXX....    ",
"        ....XXXXXXXXXXXXXXXXXXXXXXXXXXXXXXXXXXXXXXXXXXXX....    ",
"            ....XXXXXXXXXXXXXXXXXXXXXXXXXXXXXXXXXXXX....        ",
"            ....XXXXXXXXXXXXXXXXXXXXXXXXXXXXXXXXXXXX....        ",
"            ....XXXXXXXXXXXXXXXXXXXXXXXXXXXXXXXXXXXX....        ",
"            ....XXXXXXXXXXXXXXXXXXXXXXXXXXXXXXXXXXXX....        ",
"                ............XXXXXXXXXXXX............            ",
"                ............XXXXXXXXXXXX............            ",
"                ............XXXXXXXXXXXX............            ",
"                ............XXXXXXXXXXXX............            ",
"                            ....XXXX....                        ",
"                            ....XXXX....                        ",
"                            ....XXXX....                        ",
"                            ....XXXX....                        ",
"                                ....                            ",
"                                ....                            ",
"                                ....                            ",
"                                ....                            ",
"                                                                ",
"                                                                ",
"                                                                ",
"                                                                ",
"                                                                ",
"                                                                ",
"                                                                ",
"                                                                ",
"                                                                ",
"                                                                ",
"                                                                ",
"                                                                ",
"                                                                ",
"                                                                ",
"                                                                ",
"                                                                "
};
