/* XPM */
static char *k[] = {
/* columns rows colors chars-per-pixel */
"64 64 5 1 ",
"  c None",
". c #282828",
"X c white",
"o c #F78EB5",
"O c white",
/* pixels */
"                ....................................            ",
"                ....................................            ",
"                ....................................            ",
"                ....................................            ",
"            ....XXXXXXXXXXXXXXXXXXXXXXXXXXXXXXXXXXXX....        ",
"            ....XXXXXXXXXXXXXXXXXXXXXXXXXXXXXXXXXXXX....        ",
"            ....XXXXXXXXXXXXXXXXXXXXXXXXXXXXXXXXXXXX....        ",
"            ....XXXXXXXXXXXXXXXXXXXXXXXXXXXXXXXXXXXX....        ",
"        ....XXXXXXXXXXXXooooooooXXXXooooooooXXXXXXXXXXXX....    ",
"        ....XXXXXXXXXXXXooooooooXXXXooooooooXXXXXXXXXXXX....    ",
"        ....XXXXXXXXXXXXooooooooXXXXooooooooXXXXXXXXXXXX....    ",
"        ....XXXXXXXXXXXXooooooooXXXXooooooooXXXXXXXXXXXX....    ",
"        ....XXXXXXXXooooooooooooooooooooooooooooXXXXXXXX....    ",
"        ....XXXXXXXXooooooooooooooooooooooooooooXXXXXXXX....    ",
"        ....XXXXXXXXooooooooooooooooooooooooooooXXXXXXXX....    ",
"        ....XXXXXXXXooooooooooooooooooooooooooooXXXXXXXX....    ",
"        ....XXXXXXXXooooooooooooooooooooooooooooXXXXXXXX....    ",
"        ....XXXXXXXXooooooooooooooooooooooooooooXXXXXXXX....    ",
"        ....XXXXXXXXooooooooooooooooooooooooooooXXXXXXXX....    ",
"        ....XXXXXXXXooooooooooooooooooooooooooooXXXXXXXX....    ",
"        ....XXXXXXXXXXXXooooooooooooooooooooXXXXXXXXXXXX....    ",
"        ....XXXXXXXXXXXXooooooooooooooooooooXXXXXXXXXXXX....    ",
"        ....XXXXXXXXXXXXooooooooooooooooooooXXXXXXXXXXXX....    ",
"        ....XXXXXXXXXXXXooooooooooooooooooooXXXXXXXXXXXX....    ",
"        ....XXXXXXXXXXXXXXXXooooooooooooXXXXXXXXXXXXXXXX....    ",
"        ....XXXXXXXXXXXXXXXXooooooooooooXXXXXXXXXXXXXXXX....    ",
"        ....XXXXXXXXXXXXXXXXooooooooooooXXXXXXXXXXXXXXXX....    ",
"        ....XXXXXXXXXXXXXXXXooooooooooooXXXXXXXXXXXXXXXX....    ",
"        ....XXXXXXXXXXXXXXXXXXXXooooXXXXXXXXXXXXXXXXXXXX....    ",
"        ....XXXXXXXXXXXXXXXXXXXXooooXXXXXXXXXXXXXXXXXXXX....    ",
"        ....XXXXXXXXXXXXXXXXXXXXooooXXXXXXXXXXXXXXXXXXXX....    ",
"        ....XXXXXXXXXXXXXXXXXXXXooooXXXXXXXXXXXXXXXXXXXX....    ",
"            ....XXXXXXXXXXXXXXXXXXXXXXXXXXXXXXXXXXXX....        ",
"            ....XXXXXXXXXXXXXXXXXXXXXXXXXXXXXXXXXXXX....        ",
"            ....XXXXXXXXXXXXXXXXXXXXXXXXXXXXXXXXXXXX....        ",
"            ....XXXXXXXXXXXXXXXXXXXXXXXXXXXXXXXXXXXX....        ",
"                ............XXXXXXXXXXXX............            ",
"                ............XXXXXXXXXXXX............            ",
"                ............XXXXXXXXXXXX............            ",
"                ............XXXXXXXXXXXX............            ",
"                            ....XXXX....                        ",
"                            ....XXXX....                        ",
"                            ....XXXX....                        ",
"                            ....XXXX....                        ",
"                                ....                            ",
"                                ....                            ",
"                                ....                            ",
"                                ....                            ",
"                                                                ",
"                                                                ",
"                                                                ",
"                                                                ",
"                                                                ",
"                                                                ",
"                                                                ",
"                                                                ",
"                                                                ",
"                                                                ",
"                                                                ",
"                                                                ",
"                                                                ",
"                                                                ",
"                                                                ",
"                                                                "
};
