/* XPM */
static char *l[] = {
/* columns rows colors chars-per-pixel */
"64 64 5 1 ",
"  c None",
". c #282828",
"X c white",
"o c #96AAFF",
"O c white",
/* pixels */
"                ....................................            ",
"                ....................................            ",
"                ....................................            ",
"                ....................................            ",
"            ....XXXXXXXXXXXXXXXXXXXXXXXXXXXXXXXXXXXX....        ",
"            ....XXXXXXXXXXXXXXXXXXXXXXXXXXXXXXXXXXXX....        ",
"            ....XXXXXXXXXXXXXXXXXXXXXXXXXXXXXXXXXXXX....        ",
"            ....XXXXXXXXXXXXXXXXXXXXXXXXXXXXXXXXXXXX....        ",
"        ....XXXXXXXXXXXXXXXXXXXXooooXXXXXXXXXXXXXXXXXXXX....    ",
"        ....XXXXXXXXXXXXXXXXXXXXooooXXXXXXXXXXXXXXXXXXXX....    ",
"        ....XXXXXXXXXXXXXXXXXXXXooooXXXXXXXXXXXXXXXXXXXX....    ",
"        ....XXXXXXXXXXXXXXXXXXXXooooXXXXXXXXXXXXXXXXXXXX....    ",
"        ....XXXXXXXXXXXXXXXXooooooooooooXXXXXXXXXXXXXXXX....    ",
"        ....XXXXXXXXXXXXXXXXooooooooooooXXXXXXXXXXXXXXXX....    ",
"        ....XXXXXXXXXXXXXXXXooooooooooooXXXXXXXXXXXXXXXX....    ",
"        ....XXXXXXXXXXXXXXXXooooooooooooXXXXXXXXXXXXXXXX....    ",
"        ....XXXXXXXXXXXXXXXXooooooooooooXXXXXXXXXXXXXXXX....    ",
"        ....XXXXXXXXXXXXXXXXooooooooooooXXXXXXXXXXXXXXXX....    ",
"        ....XXXXXXXXXXXXXXXXooooooooooooXXXXXXXXXXXXXXXX....    ",
"        ....XXXXXXXXXXXXXXXXooooooooooooXXXXXXXXXXXXXXXX....    ",
"        ....XXXXXXXXXXXXooooooooooooooooooooXXXXXXXXXXXX....    ",
"        ....XXXXXXXXXXXXooooooooooooooooooooXXXXXXXXXXXX....    ",
"        ....XXXXXXXXXXXXooooooooooooooooooooXXXXXXXXXXXX....    ",
"        ....XXXXXXXXXXXXooooooooooooooooooooXXXXXXXXXXXX....    ",
"        ....XXXXXXXXXXXXooooooooooooooooooooXXXXXXXXXXXX....    ",
"        ....XXXXXXXXXXXXooooooooooooooooooooXXXXXXXXXXXX....    ",
"        ....XXXXXXXXXXXXooooooooooooooooooooXXXXXXXXXXXX....    ",
"        ....XXXXXXXXXXXXooooooooooooooooooooXXXXXXXXXXXX....    ",
"        ....XXXXXXXXXXXXXXXXooooooooooooXXXXXXXXXXXXXXXX....    ",
"        ....XXXXXXXXXXXXXXXXooooooooooooXXXXXXXXXXXXXXXX....    ",
"        ....XXXXXXXXXXXXXXXXooooooooooooXXXXXXXXXXXXXXXX....    ",
"        ....XXXXXXXXXXXXXXXXooooooooooooXXXXXXXXXXXXXXXX....    ",
"            ....XXXXXXXXXXXXXXXXXXXXXXXXXXXXXXXXXXXX....        ",
"            ....XXXXXXXXXXXXXXXXXXXXXXXXXXXXXXXXXXXX....        ",
"            ....XXXXXXXXXXXXXXXXXXXXXXXXXXXXXXXXXXXX....        ",
"            ....XXXXXXXXXXXXXXXXXXXXXXXXXXXXXXXXXXXX....        ",
"                ............XXXXXXXXXXXX............            ",
"                ............XXXXXXXXXXXX............            ",
"                ............XXXXXXXXXXXX............            ",
"                ............XXXXXXXXXXXX............            ",
"                            ....XXXX....                        ",
"                            ....XXXX....                        ",
"                            ....XXXX....                        ",
"                            ....XXXX....                        ",
"                                ....                            ",
"                                ....                            ",
"                                ....                            ",
"                                ....                            ",
"                                                                ",
"                                                                ",
"                                                                ",
"                                                                ",
"                                                                ",
"                                                                ",
"                                                                ",
"                                                                ",
"                                                                ",
"                                                                ",
"                                                                ",
"                                                                ",
"                                                                ",
"                                                                ",
"                                                                ",
"                                                                "
};
